<?xml version="1.0" standalone="no"?>
<!DOCTYPE svg PUBLIC "-//W3C//DTD SVG 20010904//EN"
 "http://www.w3.org/TR/2001/REC-SVG-20010904/DTD/svg10.dtd">
<svg version="1.0" xmlns="http://www.w3.org/2000/svg"
 width="512.000000pt" height="512.000000pt" viewBox="0 0 512.000000 512.000000"
 preserveAspectRatio="xMidYMid meet">
<metadata>
Created by potrace 1.11, written by Peter Selinger 2001-2013
</metadata>
<g transform="translate(0.000000,512.000000) scale(0.100000,-0.100000)"
fill="#000000" stroke="none">
<path d="M2378 5115 c-2 -2 -37 -6 -78 -10 -41 -4 -84 -9 -95 -11 -10 -2 -37
-6 -60 -9 -34 -5 -99 -18 -200 -40 -133 -29 -420 -140 -572 -221 -138 -73
-332 -199 -399 -259 -7 -5 -31 -26 -55 -45 -68 -54 -269 -253 -324 -322 -191
-239 -319 -454 -409 -693 -21 -55 -42 -107 -46 -115 -21 -42 -84 -290 -100
-390 -6 -41 -14 -86 -16 -100 -19 -100 -26 -551 -11 -615 3 -12 8 -48 12 -80
8 -67 7 -61 30 -170 54 -261 161 -540 286 -750 10 -16 27 -46 38 -65 19 -36
131 -195 166 -239 162 -197 306 -337 489 -475 321 -240 732 -415 1112 -471 22
-4 50 -8 64 -11 144 -26 530 -26 708 1 75 12 90 14 142 25 30 6 66 13 80 16
193 37 522 170 735 299 545 328 945 839 1134 1452 18 56 34 113 37 128 3 15
11 55 19 89 36 154 49 296 50 521 0 166 -6 285 -19 360 -3 17 -8 44 -10 60 -3
17 -9 53 -15 80 -6 28 -13 61 -15 75 -19 96 -80 286 -133 415 -183 443 -522
859 -918 1127 -339 228 -690 365 -1085 423 -19 3 -53 7 -75 11 -43 6 -461 14
-467 9z"/>
</g>
</svg>
